<?xml version="1.0" encoding="UTF-8"?><svg xmlns="http://www.w3.org/2000/svg" viewBox="0 0 474.35 103.98"><defs><style>.q{fill:#fff;}</style></defs><g id="a"/><g id="b"/><g id="c"/><g id="d"/><g id="e"/><g id="f"/><g id="g"/><g id="h"/><g id="i"/><g id="j"/><g id="k"/><g id="l"/><g id="m"/><g id="n"/><g id="o"/><g id="p"><g><path class="q" d="M244.96,.37c.03,2.35,.09,4.69,.09,7.04,.01,9.96,0,19.93,0,30.11,3.57-1.53,7.14-2.51,10.84-2.92,13.37-1.47,27.03,3.25,33.8,15.66,3.33,6.1,4.4,12.72,4.09,19.59-.37,8.05-2.65,15.43-8.04,21.62-5.77,6.63-13.29,10.02-21.81,11.37-11.07,1.75-21.84,.24-32.43-3.15-1.42-.45-1.28-1.33-1.28-2.36,0-31.63,0-63.26,0-94.89,0-.68-.06-1.37-.09-2.05,4.94,0,9.89,0,14.83,0Zm.1,69.74c0,5.85,.06,11.69-.04,17.53-.03,1.54,.51,2.11,1.93,2.37,3.81,.72,7.64,1.04,11.49,.69,5.76-.53,11.09-2.26,15-6.76,5.55-6.37,6.42-13.93,4.6-21.81-1.65-7.11-6.35-11.68-13.39-13.65-6.15-1.72-12.16-.92-18.02,1.49-1.17,.48-1.61,1.13-1.6,2.43,.07,5.9,.03,11.8,.03,17.71Z"/><path class="q" d="M473.98,72.22c-14.25,.02-28.5,.04-42.75,.05q-3.58,0-2.76,3.53c1.79,7.62,8.57,13.59,16.84,14.67,8.77,1.14,17.02-.45,24.67-4.96,.49-.29,.98-.58,1.45-.86,.55,.36,.33,.86,.33,1.28,.02,3.27-.07,6.53,.05,9.79,.05,1.36-.48,2.05-1.59,2.68-5.5,3.15-11.51,4.49-17.74,4.98-7.14,.56-14.12-.19-20.69-3.24-10.32-4.8-16.03-13.11-17.72-24.12-1.4-9.1-.35-17.96,4.35-26.09,5.62-9.72,14.17-14.87,25.39-15.54,5.76-.34,11.37,.4,16.55,3.1,7.49,3.9,11.28,10.45,12.97,18.45,.42,1.98,.33,4.05,1,5.98v1.72c-.62,.41-.32,1.04-.33,1.57-.04,2.33-.03,4.67-.04,7Zm-29.62-9.55c4.83,0,9.66,0,14.48,0,.63,0,1.45,.27,1.35-.93-.36-4-1.1-7.88-4.04-10.88-4.33-4.41-9.75-4.97-15.34-3.49-7.05,1.87-10.32,7.3-12.1,13.92-.35,1.3,.08,1.4,1.16,1.39,4.83-.04,9.65-.02,14.48-.02Z"/><path class="q" d="M473.98,72.22c0-2.33,0-4.67,.04-7,0-.53-.29-1.15,.33-1.57v8.6l-.37-.03Z"/><path class="q" d="M83.59,34.36c23.63,0,37.35,12.8,38.64,31.8,.61,8.98-1.26,17.34-6.8,24.6-5.95,7.8-14.09,11.77-23.75,12.59-11.36,.96-21.48-1.98-29.3-10.63-7.14-7.89-9.27-17.45-8.36-27.79,.59-6.75,2.8-12.96,7.09-18.31,6.93-8.63,16.21-12.2,22.48-12.27Zm23.77,33.81c.05-1.93-.33-4.7-1.14-7.4-2.32-7.7-8.26-12.86-15.62-13.61-8.4-.85-15.36,2.41-18.96,9.65-4.12,8.3-4.18,16.9,.45,25.04,6.7,11.78,24.18,12.12,31.6,.78,2.69-4.11,3.64-8.72,3.67-14.46Z"/><path class="q" d="M159.65,70.93c0-9.74,.02-19.48-.03-29.22,0-1.27,.29-1.9,1.58-2.34,10.53-3.62,21.34-5.47,32.49-4.93,5.87,.28,11.52,1.49,16.29,5.21,4.47,3.47,6.51,8.29,7.38,13.72,.33,2.1,.4,4.21,.4,6.34,0,13.46-.02,26.93,.03,40.39,0,1.48-.25,2.09-1.93,2.03-3.61-.15-7.24-.12-10.86,0-1.49,.05-1.93-.33-1.92-1.88,.07-13,.04-26.01,.04-39.02,0-1.49-.09-2.98-.44-4.43-1.32-5.41-5.18-8.47-11.42-8.9-5.19-.36-10.32,.23-15.39,1.39-1.25,.29-1.4,.96-1.4,2.07,.03,16.21-.01,32.43,.07,48.64,0,1.82-.54,2.19-2.22,2.13-3.62-.13-7.24-.1-10.86,0-1.41,.04-1.85-.32-1.84-1.78,.06-9.8,.03-19.59,.03-29.39Z"/><path class="q" d="M351.23,76.81c0,7.51,0,15.02,0,22.52,0,.72,.15,1.41-.95,1.64-11.97,2.45-23.97,3.69-36.03,.82-5.26-1.25-9.95-3.64-12.95-8.4-6.39-10.15-1.87-22.85,9.69-27.34,5.65-2.2,11.57-2.81,17.58-2.84,2.3-.01,4.6-.04,6.9,.02,.96,.02,1.32-.26,1.27-1.25-.08-1.43,0-2.86-.02-4.3-.04-5.13-2.68-8.61-7.66-9.85-5.96-1.48-11.76-.45-17.41,1.53-1.99,.7-3.88,1.7-5.79,2.61-.7,.33-1.14,.54-1.13-.57,.03-3.61,.05-7.22,0-10.83-.02-1.1,.81-1.3,1.48-1.64,6.01-2.98,12.37-4.48,19.08-4.58,4.39-.07,8.71,.25,12.9,1.72,7.4,2.59,11.44,7.9,12.68,15.48,.71,4.33,.3,8.69,.36,13.04,.06,4.07,.01,8.14,.01,12.21Zm-14.51,5.6v-5.15c0-4.26,0-4.28-4.23-4.26-4.31,.02-8.61,.08-12.73,1.61-2.91,1.08-5.32,2.76-6.16,5.95-1.31,5,1.3,9.1,6.8,10.73,5.07,1.5,10.22,1.09,15.36,.47,.8-.1,.98-.54,.97-1.28-.04-2.69-.02-5.38-.02-8.07Z"/><path class="q" d="M403.93,52.94c-2.79-1.76-5.29-3.45-8.12-4.57-4.75-1.87-9.63-2.78-14.65-1.53-4.46,1.11-6.62,4.86-5.46,9.01,.66,2.38,2.52,3.62,4.57,4.61,2.49,1.2,5.17,1.86,7.85,2.5,2.85,.68,5.63,1.56,8.3,2.77,8.59,3.91,11.86,10.18,11.14,19.33-.74,9.32-5.83,15.09-15.23,17.34-9.82,2.34-19.37,1.33-28.49-3.15-1.26-.62-1.88-1.36-1.83-2.88,.12-3.94,.04-7.89,.04-12.18,2.56,1.73,4.95,3.25,7.53,4.41,5.51,2.48,11.22,3.73,17.25,2.54,5.03-.99,7.39-4.67,6.13-9.28-.52-1.89-1.75-3.18-3.4-4.13-3.02-1.75-6.37-2.56-9.71-3.4-2.84-.71-5.64-1.56-8.3-2.8-5.84-2.72-9.47-7.12-10.19-13.63-.85-7.78,.82-14.61,7.64-19.37,3.32-2.31,7.11-3.48,11.09-3.9,7.81-.83,15.35,.05,22.36,3.9,1.11,.61,1.52,1.28,1.49,2.54-.08,3.84-.03,7.68-.03,11.88Z"/><path class="q" d="M52.85,38.78c-2.37,3.08-4.43,6.3-5.91,9.86-.37,.9-.96,.5-1.56,.3-5.2-1.69-10.48-2.06-15.78-.57-8.88,2.49-13.99,9.32-14.51,19.25-.55,10.39,4.48,18.51,13.53,21.58,5.61,1.9,11.31,1.83,16.92-.05,1.39-.47,1.94-.24,2.56,1.09,1.32,2.8,3.04,5.39,5.1,7.72,.67,.76,.6,1.06-.33,1.54-12.35,6.34-31.28,5.65-42.48-4.8-5.5-5.13-8.62-11.49-9.79-18.84-1.38-8.61-.51-16.95,3.79-24.65,5.35-9.57,13.82-14.77,24.53-16.41,7.48-1.14,14.78-.37,21.72,2.82,.52,.24,1.04,.49,1.55,.75,.2,.1,.38,.23,.65,.41Z"/><path class="q" d="M131.81,68.99c0-10.54,.02-21.08-.03-31.62,0-1.28,.3-1.64,1.6-1.61,3.91,.09,7.81,.07,11.72,0,1.12-.02,1.58,.16,1.57,1.45-.04,21.14-.04,42.28,0,63.41,0,1.1-.26,1.48-1.42,1.46-3.96-.07-7.93-.09-11.89,0-1.38,.04-1.58-.45-1.57-1.67,.05-10.48,.03-20.97,.03-31.45Z"/><path class="q" d="M148.43,15.51c.02,5.12-4.15,9.35-9.23,9.37-5.04,.02-9.31-4.22-9.36-9.29-.05-4.99,4.29-9.29,9.36-9.27,5.04,.02,9.21,4.18,9.23,9.19Z"/></g></g></svg>