<?xml version="1.0" encoding="UTF-8"?><svg xmlns="http://www.w3.org/2000/svg" viewBox="0 0 446.06 136.5"><defs><style>.q{fill:#fff;}</style></defs><g id="a"/><g id="b"/><g id="c"/><g id="d"/><g id="e"/><g id="f"/><g id="g"/><g id="h"/><g id="i"/><g id="j"/><g id="k"/><g id="l"/><g id="m"/><g id="n"/><g id="o"/><g id="p"><g><path class="q" d="M446.06,91.66c-2.93,0-5.86-.03-8.79,.01-.67,0-1.03-.22-1.4-.75-2.85-4.09-5.75-8.15-8.6-12.24-.45-.65-.69-.61-1.18-.06-.94,1.07-1.93,2.09-2.93,3.1-.35,.36-.5,.72-.5,1.22,.02,2.55-.01,5.1,.03,7.66,.01,.69-.13,.96-.89,.94-2.06-.05-4.12-.04-6.18,0-.57,0-.81-.1-.81-.75,.02-15.98,.02-31.96,0-47.94,0-.6,.22-.73,.76-.72,2.09,.02,4.18,.04,6.27,0,.72-.02,.85,.24,.85,.9-.02,9.14-.01,18.27,0,27.41,0,.33-.08,.68,.08,1.01,.3,.03,.39-.23,.54-.39,3.84-4.03,7.69-8.06,11.51-12.11,.44-.46,.87-.65,1.51-.64,2.84,.03,5.69,.01,8.53,.02,.28,0,.58-.1,.9,.16-1.12,1.15-2.22,2.28-3.33,3.42-3.25,3.31-6.51,6.62-9.77,9.92-.35,.35-.49,.59-.14,1.08,4.43,6.1,8.84,12.22,13.25,18.33,.08,.11,.21,.18,.31,.27v.17Z"/><path class="q" d="M118.66,68.17c0,11.14,0,22.28,.01,33.41,0,.63-.17,.98-.73,1.3-19.18,11.08-38.36,22.17-57.51,33.28-.78,.45-1.31,.44-2.09,0C39.16,125.1,19.95,114.06,.74,103.04,.18,102.72,0,102.39,0,101.75c.02-22.28,.02-44.55,0-66.83,0-.54,.11-.87,.63-1.17C19.94,22.61,39.24,11.44,58.53,.26c.57-.33,.98-.36,1.57-.02,19.25,11.08,38.51,22.13,57.78,33.17,.63,.36,.8,.75,.8,1.43-.02,11.11-.01,22.22-.01,33.33Zm-25.07,.03c0-6.29-.01-12.59,.02-18.88,0-.66-.18-1.02-.76-1.36-10.93-6.24-21.84-12.5-32.75-18.78-.55-.32-.94-.31-1.48,0-10.89,6.36-21.8,12.69-32.71,19.02-.48,.28-.68,.57-.68,1.15,.02,12.65,.02,25.3,0,37.94,0,.61,.22,.92,.72,1.21,10.95,6.25,21.9,12.52,32.84,18.8,.48,.28,.83,.3,1.33,.01,10.91-6.34,21.82-12.65,32.75-18.95,.59-.34,.76-.72,.75-1.37-.02-6.27-.01-12.53-.01-18.8Z"/><path class="q" d="M153.15,67.46c-.22-5.12,1.04-9.99,4-14.35,4.36-6.44,10.46-10.08,18.23-10.72,5.64-.47,10.99,.56,15.74,3.82,3.98,2.73,6.55,6.49,7.93,11.1,.16,.54,.07,.76-.47,.93-2.04,.65-4.08,1.31-6.1,2.04-.71,.26-.93,.16-1.17-.59-1.54-5.02-4.9-8.35-10.02-9.37-9.16-1.81-17.64,3.2-19.42,13.16-.61,3.45-.5,6.87,.5,10.24,1.95,6.57,7.35,10.78,14.21,11.13,7.18,.36,12.79-3.34,15.19-10.05,.17-.48,.32-.55,.79-.4,2.03,.68,4.07,1.34,6.13,1.95,.67,.2,.77,.48,.55,1.11-2.45,7.2-7.24,12.18-14.56,14.23-7.94,2.23-15.47,1.01-22.19-4.02-5.49-4.11-9.74-11.31-9.34-20.22Z"/><path class="q" d="M214.36,61.44c2.02-2.21,4.28-3.6,7.02-3.97,8.24-1.11,13.55,3.21,14.38,10.98,.14,1.27,.14,2.55,.14,3.82,0,6.12,0,12.24,.01,18.36,0,.65-.11,.91-.84,.9-2.06-.05-4.12-.03-6.18,0-.49,0-.64-.15-.64-.64,.02-6.44-.09-12.88,.06-19.32,.09-3.65-2.44-6.55-5.44-6.89-4.1-.48-7.49,1.81-8.21,5.45-.11,.57-.16,1.15-.16,1.73-.04,6.27-.1,12.53-.12,18.8,0,.65-.12,.9-.85,.89-2.09-.05-4.18-.04-6.27,0-.56,0-.81-.08-.81-.74,.02-15.98,.02-31.96,0-47.95,0-.6,.21-.72,.75-.72,2.12,.02,4.24,.04,6.36,0,.67-.01,.82,.2,.82,.84-.02,5.8-.01,11.6-.01,17.4v1.08Z"/><path class="q" d="M265.21,87.53c-.29,.36-.42,.53-.56,.7-2.37,2.93-5.44,4.38-9.21,4.49-2.79,.08-5.38-.37-7.62-2.12-3.22-2.52-4.59-5.86-3.97-9.88,.61-3.98,3.22-6.28,6.89-7.52,2.38-.8,4.89-.94,7.34-1.37,1.48-.26,2.98-.46,4.46-.72,1.42-.25,2.03-1.03,2.01-2.48-.03-2.05-1.08-3.62-3.02-4.34-1.75-.65-3.58-.82-5.38-.33-2.52,.68-4.06,2.38-4.56,4.95-.12,.65-.22,.93-1.02,.72-1.82-.49-3.66-.9-5.51-1.24-.78-.14-.85-.47-.71-1.11,.93-4.14,3.43-7.01,7.27-8.62,4.72-1.97,9.54-1.83,14.22,.16,3.72,1.59,5.67,4.64,6.32,8.56,.17,1,.2,2.02,.19,3.03,0,5.22,0,10.44,0,15.66,0,1.6,.07,3.19,.32,4.77,.09,.58,.05,.89-.7,.87-1.91-.06-3.83-.04-5.75,0-.62,.01-.79-.23-.85-.79-.1-1.04-.21-2.08-.16-3.38Zm-.57-9.11c0-.52-.02-1.04,0-1.56,.02-.45-.17-.52-.58-.46-2.95,.45-5.9,.86-8.84,1.33-2.26,.36-3.83,2.45-3.66,4.76,.16,2.2,2.02,3.9,4.31,3.96,.35,0,.7,.01,1.04,.02,4.61,.11,8.04-3.45,7.72-8.05Z"/><path class="q" d="M383.17,62.7c2.03-3.03,4.6-4.83,7.96-5.23,6.84-.81,12.24,2.45,13.63,9.61,.24,1.23,.34,2.47,.34,3.72,0,6.61-.01,13.23,.02,19.84,0,.73-.2,.92-.92,.9-2.12-.05-4.24-.03-6.36,0-.52,0-.71-.13-.71-.68,.02-6.27-.08-12.53,.05-18.79,.06-2.61-.56-4.77-2.72-6.3-2.32-1.64-4.85-1.51-7.27-.32-2.68,1.32-3.85,3.67-3.85,6.61,0,5.8,.02,11.6,.02,17.4q0,2.06-2.07,2.06c-1.71,0-3.43-.02-5.14,.01-.52,0-.69-.12-.69-.67,.02-10.62,.02-21.23,0-31.85,0-.5,.09-.72,.66-.71,2.12,.03,4.24,.03,6.36,0,.53,0,.71,.15,.69,.69-.04,1.15-.01,2.3-.01,3.72Z"/><path class="q" d="M307.73,62.7c1.8-2.68,4-4.44,6.92-5.03,7-1.42,13.81,1.79,14.86,10.59,.15,1.24,.15,2.49,.15,3.73,0,6.24,0,12.47,.01,18.71,0,.64-.14,.85-.81,.83-2.03-.05-4.07-.05-6.1,0-.77,.02-1.03-.16-1.02-.98,.04-5.95,.02-11.89,.02-17.84,0-1.19-.05-2.38-.34-3.54-1.34-5.42-7.89-5.64-10.84-3.14-1.87,1.58-2.65,3.59-2.65,5.98,0,6.18-.03,12.36,0,18.54,0,.81-.23,1.01-1.01,.99-2.03-.05-4.06-.04-6.1,0-.56,0-.81-.08-.81-.74,.02-10.59,.02-21.17,0-31.76,0-.57,.16-.74,.73-.73,2.09,.03,4.18,.03,6.27,0,.6-.01,.73,.21,.71,.76-.04,1.12-.01,2.25-.01,3.65Z"/><path class="q" d="M339.23,66.86c0-7.89,.01-15.77-.02-23.66,0-.8,.14-1.1,1.02-1.07,2.03,.07,4.06,.04,6.09,.01,.57,0,.81,.11,.81,.75-.02,15.98-.02,31.95,0,47.93,0,.51-.11,.71-.67,.7-2.15-.03-4.3-.04-6.44,0-.68,.01-.81-.21-.8-.83,.02-7.94,.01-15.89,.01-23.83Z"/><path class="q" d="M281.95,74.95c0-5.25,.01-10.5-.02-15.74,0-.71,.17-.94,.91-.92,2.09,.05,4.18,.03,6.27,0,.56,0,.82,.08,.82,.74-.02,10.58-.02,21.16,0,31.75,0,.55-.13,.75-.72,.76-2.15,0-4.29,.05-6.44,.13-.65,.03-.83-.15-.83-.81,.03-5.31,.02-10.61,.02-15.92Z"/><path class="q" d="M357.38,75.04c0-5.3,.01-10.61-.01-15.91,0-.63,.13-.85,.81-.84,2.09,.05,4.18,.03,6.27,0,.58,0,.8,.11,.8,.75-.02,10.58-.02,21.16,0,31.74,0,.54-.11,.75-.71,.75-2.12,0-4.24,.05-6.35,.13-.66,.03-.82-.16-.82-.81,.03-5.28,.02-10.55,.02-15.83Z"/><path class="q" d="M291.06,46.71c-.09,2.85-2.46,5.12-5.25,5.05-2.87-.07-5.16-2.47-5.08-5.32,.07-2.67,2.44-5.08,4.94-5.02,3.13,.07,5.49,2.38,5.39,5.29Z"/><path class="q" d="M361.34,41.49c2.85,0,5.11,2.3,5.1,5.16-.02,2.83-2.36,5.14-5.18,5.11-2.83-.03-5.13-2.36-5.1-5.19,.02-2.84,2.32-5.09,5.18-5.08Z"/></g></g></svg>