<?xml version="1.0" encoding="UTF-8"?><svg xmlns="http://www.w3.org/2000/svg" viewBox="0 0 520.83 100"><defs><style>.q{fill:#fff;}</style></defs><g id="a"/><g id="b"/><g id="c"/><g id="d"/><g id="e"/><g id="f"/><g id="g"/><g id="h"/><g id="i"/><g id="j"/><g id="k"/><g id="l"/><g id="m"/><g id="n"/><g id="o"/><g id="p"><g><path class="q" d="M43.61,.14c.29,.22,.56,.48,.88,.66,13.73,7.92,27.45,15.83,41.19,23.72,.75,.43,1.03,.89,1.03,1.78-.03,15.83-.03,31.67,0,47.5,0,.88-.26,1.35-1.02,1.79-13.74,7.88-27.47,15.8-41.19,23.71-.33,.19-.66,.37-1.03,.58-.27-.14-.55-.27-.82-.43-13.85-7.98-27.69-15.96-41.55-23.92-.74-.42-.97-.9-.97-1.72,.02-15.83,.02-31.67,0-47.5,0-.89,.32-1.34,1.06-1.77C14.95,16.62,28.71,8.69,42.46,.76c.33-.19,.63-.42,.94-.63h.21Zm20.95,38.88c-1.37-5.83-2.72-11.54-4.07-17.27H26.29l-3.98,17.27h42.25ZM10.87,53.48c.24,.43,.41,.77,.6,1.09,1.83,3.18,3.65,6.37,5.48,9.55,2.98,5.19,5.98,10.38,8.94,15.59,.37,.66,.78,.93,1.55,.9,1.45-.06,2.91-.05,4.37,0,.64,.02,1.1-.19,1.56-.63,1.6-1.53,3.25-3.02,4.87-4.53,.61-.57,1.43-1.06,1.72-1.76,.31-.74,.09-1.7,.15-2.56,.05-.65-.17-1.1-.65-1.54-2.15-2.01-4.27-4.06-6.41-6.08-.44-.41-.63-.84-.62-1.44,.03-3.25,0-6.51,.03-9.76,0-.68-.21-1.06-.78-1.42-2.91-1.81-5.8-3.67-8.69-5.51-.2-.13-.41-.24-.66-.38l-11.45,8.49Zm53.78-8.58c-.35,.21-.61,.35-.87,.52-2.79,1.81-5.57,3.64-8.38,5.43-.59,.38-.83,.8-.82,1.51,.04,3.19,0,6.38,.03,9.56,0,.72-.22,1.22-.74,1.71-1.71,1.58-3.38,3.19-5.05,4.8-.62,.6-1.45,1.13-1.77,1.87-.31,.74-.07,1.7-.12,2.57-.03,.56,.14,.97,.57,1.36,2.11,1.9,4.21,3.83,6.29,5.76,.38,.36,.78,.51,1.3,.5,1.53-.03,3.06-.05,4.58,0,.7,.03,1.05-.26,1.37-.84,4.83-8.46,9.67-16.9,14.51-25.35,.15-.26,.27-.54,.42-.85-3.82-2.88-7.57-5.71-11.34-8.55Zm-10.19-3.15h-22.03c.15,.45,.26,.81,.4,1.16,.99,2.58,2,5.16,2.98,7.76,.16,.44,.27,.95,.23,1.4-.2,2.24-.47,4.47-.71,6.71-.12,1.13-.21,2.25-.31,3.37,1.09,.23,16.01,.21,16.8,0,0-.2,.02-.41,0-.61-.27-2.86-.53-5.72-.83-8.58-.1-.98-.02-1.9,.35-2.84,.93-2.31,1.77-4.66,2.65-6.99,.16-.42,.29-.84,.47-1.37Z"/><path class="q" d="M520.71,73.11c-2.5-.02-4.99-.03-7.49-.05-.37,0-.75,0-1.25,0v-1.32c0-7.07,0-14.14,0-21.2,0-1.57-.16-3.11-.67-4.61-.99-2.93-3.23-4.63-6.22-4.89-5.36-.45-8.65,2.91-9.17,7.89-.09,.82-.08,1.66-.08,2.49,0,6.79,0,13.58,0,20.37v1.27h-8.79c0-.44,0-.84,0-1.24,0-7.07,0-14.14,0-21.2,0-1.32-.09-2.63-.44-3.91-.87-3.21-3.1-5.28-6.09-5.63-3.63-.43-6.59,.95-8.24,3.84-.97,1.7-1.35,3.55-1.36,5.49-.02,3.6,0,7.21,0,10.81,0,3.53,0,7.07,0,10.6v1.11c-.82,.24-6.7,.31-8.55,.13-.23-.72-.33-37.98-.1-39.73,.78-.26,7.54-.3,8.66,0v6.02l.19,.06c.2-.21,.4-.42,.6-.64,.61-.66,1.18-1.36,1.83-1.99,2.65-2.57,5.85-3.74,9.54-3.63,4.7,.14,8.33,2.09,10.73,6.2,.08,.14,.2,.27,.35,.48,.38-.43,.71-.82,1.05-1.21,2.14-2.41,4.68-4.22,7.84-5.04,2.99-.78,5.99-.75,8.94,.14,4.28,1.31,6.85,4.3,8.03,8.53,.26,.93,.32,1.9,.48,2.86,.06,.34,.14,.67,.22,1v27.03Z"/><path class="q" d="M242.61,66.66v17.16h-8.59c-.24-.81-.26-49.8-.02-50.76h8.6v6.81c.53-.03,.63-.41,.83-.65,1.45-1.8,3.11-3.35,5.16-4.46,2.74-1.48,5.67-1.95,8.75-1.66,7.18,.69,13.82,5.78,15.69,14.59,1.12,5.28,.78,10.5-1.66,15.41-2.6,5.22-6.76,8.55-12.55,9.62-5.96,1.1-11.03-.61-15.09-5.16-.29-.33-.57-.66-.86-1l-.26,.09Zm-.17-13.89c.02,3.32,.79,6.11,2.69,8.53,5.11,6.5,15.03,5.28,18.42-2.25,.69-1.53,1.05-3.15,1.16-4.82,.2-2.9-.27-5.66-1.74-8.2-3.55-6.12-11.81-7.24-16.86-2.28-2.6,2.55-3.61,5.75-3.66,9.02Z"/><path class="q" d="M328.92,33.08c7.78,.23,13.79,3.05,17.75,9.39,7.25,11.62,1.08,27.35-13.18,30.2-6.22,1.24-12.07,.16-17.12-3.8-5.8-4.56-8.19-10.65-7.47-17.96,.78-7.87,6.61-15.51,16.19-17.39,1.39-.27,2.82-.33,3.83-.44Zm11.91,19.81c.05-1.63-.26-3.28-.89-4.88-1.76-4.43-5.86-7.29-10.53-7.35-5-.07-9.03,2.45-10.91,6.86-1.07,2.52-1.33,5.14-.89,7.84,.96,5.82,5.75,10.5,12.25,10.11,4.09-.24,7.2-2.09,9.27-5.62,1.24-2.11,1.74-4.43,1.7-6.97Z"/><path class="q" d="M434.02,33.1c7.15,.15,12.83,2.61,16.9,8.14,8.07,10.97,3.14,27.43-11.33,31.2-5.3,1.38-10.52,.91-15.34-1.75-6.87-3.79-10.38-9.74-10.39-17.58-.01-10.01,7.14-18.18,17.1-19.71,1.13-.17,2.27-.22,3.06-.3Zm-11.54,19.74c.04,.59,.05,1.18,.11,1.76,.7,6.34,5.7,11.21,12.21,10.87,4.62-.24,7.94-2.44,9.91-6.6,1.14-2.4,1.41-4.96,1.11-7.6-.56-4.82-4.01-9.72-10.04-10.52-4.41-.58-8.88,1.1-11.4,5.26-1.27,2.1-1.84,4.39-1.89,6.83Z"/><path class="q" d="M186.84,33.09c.25-.04,.38-.07,.51-.07,2.88,0,5.76,0,8.76,0,1.87,4.9,3.75,9.8,5.63,14.71,1.88,4.9,3.76,9.81,5.61,14.66,.15,.02,.19,.03,.22,.02,.03,0,.06-.03,.07-.06,3.6-9.74,7.21-19.47,10.83-29.27h9.08c-6.5,16.95-12.97,33.84-19.45,50.75h-8.78c.15-.43,.26-.78,.39-1.13,1.12-2.83,2.22-5.67,3.38-8.49,.3-.73,.28-1.34-.02-2.07-5.29-12.65-10.56-25.31-15.83-37.97-.14-.34-.26-.69-.41-1.09Z"/><path class="q" d="M408.67,66.23c-2.4,2.53-5,4.66-8.29,5.67-8.03,2.46-15.37,1.25-21.44-4.8-4.58-4.57-6.28-10.3-5.44-16.67,.95-7.19,4.73-12.46,11.31-15.61,3.36-1.61,6.95-2.11,10.65-1.67,1.54,.19,3.09,.46,4.58,.88,3.33,.94,6.06,2.86,8.37,5.39,.09,.1,.18,.21,.26,.32,.04,.05,.05,.13,.1,.24-1.78,1.86-3.57,3.73-5.38,5.62-.68-.64-1.29-1.26-1.94-1.83-2.3-2.02-4.97-3.12-8.06-3.13-3.32,0-6.06,1.28-8.23,3.77-1.66,1.91-2.58,4.18-2.9,6.67-.3,2.44-.12,4.84,.81,7.15,2.88,7.13,10.33,8.7,15.88,6.07,1.39-.66,2.61-1.57,3.75-2.6,.25-.23,.51-.45,.85-.75,1.71,1.76,3.39,3.49,5.11,5.26Z"/><path class="q" d="M145.63,60.99c1.76,1.76,3.45,3.44,5.14,5.14-5.13,6.32-13.42,8.44-21.5,6.1-8.07-2.35-13.68-9.98-13.77-18.56-.1-9.06,5.35-16.95,13.64-19.56,7.36-2.32,16.44-.71,21.5,5.63-1.75,1.89-3.51,3.78-5.31,5.72-.4-.38-.74-.71-1.1-1.04-1.67-1.57-3.54-2.78-5.8-3.32-5.97-1.43-11.37,1.48-13.44,7.26-1.25,3.51-1.14,7.02,.38,10.42,2.69,6.02,9.47,8.49,15.45,5.68,1.46-.69,2.74-1.63,3.93-2.69,.31-.28,.62-.55,.86-.78Z"/><path class="q" d="M284.18,41.31h-4.77v-7.41h4.72c.13-3.53,0-6.98,.07-10.4,.8-.22,7.27-.27,8.65-.07,.17,1.09,.06,2.23,.07,3.35,.02,1.18,0,2.36,0,3.53s0,2.27,0,3.51h8.03c.27,.82,.34,5.44,.15,7.37-.86,.27-1.76,.09-2.64,.12-.9,.03-1.8,0-2.71,0h-2.76c-.03,.46-.07,.79-.07,1.13,0,5.82,0,11.64,0,17.46,0,.48,.04,.97,.1,1.45,.27,2.24,1.65,3.54,3.93,3.67,.97,.05,1.94,.03,2.91,.04,.38,0,.76,0,1.25,0,.12,2.6,.03,5.14,.05,7.62-.14,.09-.2,.16-.26,.16-2.74-.04-5.49,.08-8.21-.18-4.78-.45-7.75-3.49-8.33-8.24-.13-1.06-.2-2.14-.2-3.21-.02-6.16,0-12.33,0-18.49,0-.41,0-.82,0-1.41Z"/><path class="q" d="M181.32,33.22v9.22c-.52,.02-.99,.05-1.46,.07-1.68,.07-3.3,.44-4.83,1.14-2.97,1.35-4.91,3.66-6.06,6.66-.9,2.32-1.22,4.75-1.23,7.23-.02,4.78,0,9.56,0,14.34,0,.37,0,.74,0,1.18h-8.66V33.24c2.83-.06,5.68-.02,8.65-.03v8.86l.2,.06c.15-.25,.31-.49,.44-.74,.87-1.75,1.94-3.36,3.37-4.71,2.65-2.52,5.82-3.64,9.61-3.46Z"/><path class="q" d="M365.93,67.28c0,.45-.04,.91,0,1.35,.1,.83-.21,1.37-.98,1.73-.91,.43-1.78,.94-2.64,1.45-.54,.32-1.02,.31-1.56,0-.92-.55-1.85-1.09-2.8-1.59-.53-.28-.73-.66-.72-1.25,.03-1.11,.03-2.22,0-3.32-.02-.58,.16-.98,.7-1.26,.98-.52,1.94-1.07,2.89-1.64,.51-.3,.97-.27,1.46,.02,.96,.55,1.93,1.1,2.91,1.61,.52,.28,.76,.66,.73,1.25-.03,.55,0,1.11,0,1.66Z"/></g></g></svg>