<svg xmlns="http://www.w3.org/2000/svg" xmlns:xlink="http://www.w3.org/1999/xlink" viewBox="0 0 978 228.38"><defs><style>.cls-1,.cls-11,.cls-12,.cls-13,.cls-14,.cls-15,.cls-16,.cls-17,.cls-18,.cls-19,.cls-2,.cls-20,.cls-21,.cls-22,.cls-23,.cls-24,.cls-25,.cls-26,.cls-4,.cls-5,.cls-6,.cls-7,.cls-8{fill:none;}.cls-11,.cls-12,.cls-13,.cls-14,.cls-15,.cls-16,.cls-17,.cls-18,.cls-19,.cls-2,.cls-20,.cls-21,.cls-22,.cls-23,.cls-24,.cls-25,.cls-26,.cls-4,.cls-5,.cls-6,.cls-7,.cls-8{stroke-miterlimit:10;}.cls-2{stroke:url(#linear-gradient);}.cls-3{clip-path:url(#clip-path);}.cls-11,.cls-12,.cls-13,.cls-14,.cls-15,.cls-16,.cls-17,.cls-18,.cls-19,.cls-20,.cls-21,.cls-22,.cls-23,.cls-24,.cls-25,.cls-26,.cls-4,.cls-5,.cls-6,.cls-7,.cls-8{stroke-width:0.4px;}.cls-4{stroke:url(#linear-gradient-2);}.cls-5{stroke:url(#linear-gradient-3);}.cls-6{stroke:url(#linear-gradient-4);}.cls-7{stroke:url(#linear-gradient-5);}.cls-8{stroke:url(#linear-gradient-6);}.cls-9{fill:url(#linear-gradient-7);}.cls-10{clip-path:url(#clip-path-2);}.cls-11{stroke:url(#linear-gradient-8);}.cls-12{stroke:url(#linear-gradient-9);}.cls-13{stroke:url(#linear-gradient-10);}.cls-14{stroke:url(#linear-gradient-11);}.cls-15{stroke:url(#linear-gradient-12);}.cls-16{stroke:url(#linear-gradient-13);}.cls-17{stroke:url(#linear-gradient-14);}.cls-18{stroke:url(#linear-gradient-15);}.cls-19{stroke:url(#linear-gradient-16);}.cls-20{stroke:url(#linear-gradient-17);}.cls-21{stroke:url(#linear-gradient-18);}.cls-22{stroke:url(#linear-gradient-19);}.cls-23{stroke:url(#linear-gradient-20);}.cls-24{stroke:url(#linear-gradient-21);}.cls-25{stroke:url(#linear-gradient-22);}.cls-26{stroke:url(#linear-gradient-23);}</style><linearGradient id="linear-gradient" x1="-0.5" y1="114.19" x2="978.5" y2="114.19" gradientUnits="userSpaceOnUse"><stop offset="0" stop-color="#fff" stop-opacity="0.2"/><stop offset="0.09" stop-color="#fff" stop-opacity="0.13"/><stop offset="0.23" stop-color="#fff" stop-opacity="0.06"/><stop offset="0.38" stop-color="#fff" stop-opacity="0.01"/><stop offset="0.53" stop-color="#fff" stop-opacity="0"/><stop offset="0.66" stop-color="#fff" stop-opacity="0.02"/><stop offset="0.79" stop-color="#fff" stop-opacity="0.07"/><stop offset="0.94" stop-color="#fff" stop-opacity="0.15"/><stop offset="1" stop-color="#fff" stop-opacity="0.2"/></linearGradient><clipPath id="clip-path"><rect class="cls-1" x="-1078" width="978" height="228.38"/></clipPath><linearGradient id="linear-gradient-2" x1="-1310.12" y1="129" x2="114.3" y2="129" gradientUnits="userSpaceOnUse"><stop offset="0" stop-color="#3b28c2" stop-opacity="0.7"/><stop offset="0.07" stop-color="#3b28c2" stop-opacity="0.58"/><stop offset="0.22" stop-color="#3b28c2" stop-opacity="0.33"/><stop offset="0.35" stop-color="#3b28c2" stop-opacity="0.15"/><stop offset="0.45" stop-color="#3b28c2" stop-opacity="0.04"/><stop offset="0.52" stop-color="#3b28c2" stop-opacity="0"/><stop offset="0.59" stop-color="#3b28c2" stop-opacity="0.04"/><stop offset="0.68" stop-color="#3b28c2" stop-opacity="0.14"/><stop offset="0.8" stop-color="#3b28c2" stop-opacity="0.32"/><stop offset="0.93" stop-color="#3b28c2" stop-opacity="0.55"/><stop offset="1" stop-color="#3b28c2" stop-opacity="0.7"/></linearGradient><linearGradient id="linear-gradient-3" x1="-1282.73" y1="129" x2="86.9" y2="129" xlink:href="#linear-gradient-2"/><linearGradient id="linear-gradient-4" x1="-1256.39" y1="129" x2="60.56" y2="129" xlink:href="#linear-gradient-2"/><linearGradient id="linear-gradient-5" x1="-1231.07" y1="129" x2="35.24" y2="129" xlink:href="#linear-gradient-2"/><linearGradient id="linear-gradient-6" x1="-1206.71" y1="129" x2="10.89" y2="129" xlink:href="#linear-gradient-2"/><linearGradient id="linear-gradient-7" x1="418.47" y1="152.01" x2="421.36" y2="152.01" xlink:href="#linear-gradient-2"/><clipPath id="clip-path-2"><rect class="cls-2" width="978" height="228.38"/></clipPath><linearGradient id="linear-gradient-8" x1="-232.12" y1="129" x2="1192.3" y2="129" gradientUnits="userSpaceOnUse"><stop offset="0" stop-color="#3521c9"/><stop offset="0.01" stop-color="#3c28cb" stop-opacity="0.97"/><stop offset="0.15" stop-color="#8074dd" stop-opacity="0.63"/><stop offset="0.27" stop-color="#b7b0ec" stop-opacity="0.36"/><stop offset="0.37" stop-color="#dedbf6" stop-opacity="0.16"/><stop offset="0.45" stop-color="#f6f5fd" stop-opacity="0.04"/><stop offset="0.5" stop-color="#fff" stop-opacity="0"/><stop offset="0.55" stop-color="#f6f5fd" stop-opacity="0.04"/><stop offset="0.63" stop-color="#dedaf6" stop-opacity="0.16"/><stop offset="0.74" stop-color="#b6afec" stop-opacity="0.36"/><stop offset="0.86" stop-color="#7f72dd" stop-opacity="0.63"/><stop offset="0.99" stop-color="#3a26ca" stop-opacity="0.98"/><stop offset="1" stop-color="#3521c9"/></linearGradient><linearGradient id="linear-gradient-9" x1="-204.73" y1="129" x2="1164.9" y2="129" xlink:href="#linear-gradient-8"/><linearGradient id="linear-gradient-10" x1="-178.39" y1="129" x2="1138.56" y2="129" xlink:href="#linear-gradient-8"/><linearGradient id="linear-gradient-11" x1="-153.07" y1="129" x2="1113.24" y2="129" xlink:href="#linear-gradient-8"/><linearGradient id="linear-gradient-12" x1="-128.71" y1="129" x2="1088.89" y2="129" xlink:href="#linear-gradient-8"/><linearGradient id="linear-gradient-13" x1="-105.3" y1="129" x2="1065.47" y2="129" xlink:href="#linear-gradient-8"/><linearGradient id="linear-gradient-14" x1="-82.78" y1="129" x2="1042.96" y2="129" xlink:href="#linear-gradient-8"/><linearGradient id="linear-gradient-15" x1="-61.14" y1="129" x2="1021.31" y2="129" xlink:href="#linear-gradient-8"/><linearGradient id="linear-gradient-16" x1="-40.32" y1="129" x2="1000.49" y2="129" xlink:href="#linear-gradient-8"/><linearGradient id="linear-gradient-17" x1="-20.3" y1="129" x2="980.48" y2="129" xlink:href="#linear-gradient-8"/><linearGradient id="linear-gradient-18" x1="-1.06" y1="129" x2="961.23" y2="129" xlink:href="#linear-gradient-8"/><linearGradient id="linear-gradient-19" x1="17.45" y1="129" x2="942.72" y2="129" xlink:href="#linear-gradient-8"/><linearGradient id="linear-gradient-20" x1="35.24" y1="129" x2="924.93" y2="129" xlink:href="#linear-gradient-8"/><linearGradient id="linear-gradient-21" x1="52.35" y1="129" x2="907.82" y2="129" xlink:href="#linear-gradient-8"/><linearGradient id="linear-gradient-22" x1="68.8" y1="129" x2="891.37" y2="129" xlink:href="#linear-gradient-8"/><linearGradient id="linear-gradient-23" x1="84.62" y1="129" x2="875.55" y2="129" xlink:href="#linear-gradient-8"/></defs><g id="Layer_14" data-name="Layer 14"><g class="cls-3"><path class="cls-4" d="M-1310.12,50.81c50.87,0,50.87,156.38,101.74,156.38s50.87-156.38,101.74-156.38,50.87,156.38,101.74,156.38S-954,50.81-903.15,50.81s50.87,156.38,101.74,156.38S-750.54,50.81-699.66,50.81s50.87,156.38,101.74,156.38S-547,50.81-496.18,50.81s50.87,156.38,101.74,156.38S-343.56,50.81-292.69,50.81s50.87,156.38,101.74,156.38S-140.07,50.81-89.2,50.81-38.33,207.19,12.55,207.19,63.42,50.81,114.3,50.81"/><path class="cls-5" d="M-1282.73,58.56c48.91,0,48.91,140.88,97.83,140.88S-1136,58.56-1087.07,58.56s48.91,140.88,97.83,140.88,48.91-140.88,97.83-140.88,48.91,140.88,97.83,140.88,48.91-140.88,97.83-140.88,48.91,140.88,97.83,140.88S-549,58.56-500.09,58.56s48.91,140.88,97.83,140.88,48.91-140.88,97.83-140.88,48.91,140.88,97.83,140.88,48.92-140.88,97.83-140.88,48.92,140.88,97.84,140.88S38,58.56,86.9,58.56"/><path class="cls-6" d="M-1256.39,65.54c47,0,47,126.92,94.06,126.92s47-126.92,94.07-126.92,47,126.92,94.07,126.92,47-126.92,94.07-126.92,47,126.92,94.06,126.92S-739,65.54-692,65.54s47,126.92,94.07,126.92,47-126.92,94.07-126.92,47,126.92,94.06,126.92,47-126.92,94.07-126.92,47,126.92,94.07,126.92,47-126.92,94.07-126.92,47,126.92,94.07,126.92,47-126.92,94.07-126.92"/><path class="cls-7" d="M-1231.07,71.83c45.23,0,45.23,114.34,90.45,114.34s45.23-114.34,90.45-114.34,45.23,114.34,90.45,114.34,45.23-114.34,90.45-114.34S-824,186.17-778.82,186.17s45.23-114.34,90.45-114.34,45.22,114.34,90.45,114.34S-552.7,71.83-507.47,71.83-462.25,186.17-417,186.17-371.8,71.83-326.57,71.83s45.22,114.34,90.45,114.34S-190.9,71.83-145.67,71.83s45.23,114.34,90.45,114.34S-10,71.83,35.24,71.83"/><path class="cls-8" d="M-1206.71,77.5c43.48,0,43.48,103,87,103s43.49-103,87-103,43.48,103,87,103,43.48-103,87-103,43.48,103,87,103,43.48-103,87-103,43.48,103,87,103,43.48-103,87-103,43.48,103,87,103,43.48-103,87-103,43.49,103,87,103,43.49-103,87-103,43.48,103,87,103,43.49-103,87-103"/><path class="cls-9" d="M419.92,153.51a1.5,1.5,0,0,0,0-3,1.5,1.5,0,0,0,0,3Z"/></g><g class="cls-10"><path class="cls-11" d="M-232.12,50.81c50.87,0,50.87,156.38,101.74,156.38S-79.51,50.81-28.64,50.81,22.23,207.19,73.1,207.19,124,50.81,174.85,50.81s50.87,156.38,101.74,156.38S327.46,50.81,378.34,50.81s50.87,156.38,101.74,156.38S531,50.81,581.82,50.81s50.87,156.38,101.74,156.38S734.44,50.81,785.31,50.81s50.87,156.38,101.74,156.38S937.93,50.81,988.8,50.81s50.87,156.38,101.75,156.38S1141.42,50.81,1192.3,50.81"/><path class="cls-12" d="M-204.73,58.56c48.91,0,48.91,140.88,97.83,140.88S-58,58.56-9.07,58.56,39.84,199.44,88.76,199.44,137.67,58.56,186.59,58.56s48.91,140.88,97.83,140.88S333.33,58.56,382.25,58.56s48.91,140.88,97.83,140.88S529,58.56,577.91,58.56s48.91,140.88,97.83,140.88S724.65,58.56,773.57,58.56s48.91,140.88,97.83,140.88S920.32,58.56,969.23,58.56s48.92,140.88,97.84,140.88S1116,58.56,1164.9,58.56"/><path class="cls-13" d="M-178.39,65.54c47,0,47,126.92,94.06,126.92s47-126.92,94.07-126.92,47,126.92,94.07,126.92,47-126.92,94.07-126.92,47,126.92,94.06,126.92S339,65.54,386,65.54s47,126.92,94.07,126.92,47-126.92,94.07-126.92,47,126.92,94.06,126.92,47-126.92,94.07-126.92,47,126.92,94.07,126.92,47-126.92,94.07-126.92,47,126.92,94.07,126.92,47-126.92,94.07-126.92"/><path class="cls-14" d="M-153.07,71.83c45.23,0,45.23,114.34,90.45,114.34S-17.39,71.83,27.83,71.83s45.23,114.34,90.45,114.34S163.51,71.83,208.73,71.83,254,186.17,299.18,186.17,344.41,71.83,389.63,71.83s45.22,114.34,90.45,114.34S525.3,71.83,570.53,71.83,615.75,186.17,661,186.17,706.2,71.83,751.43,71.83s45.22,114.34,90.45,114.34S887.1,71.83,932.33,71.83s45.23,114.34,90.45,114.34S1068,71.83,1113.24,71.83"/><path class="cls-15" d="M-128.71,77.5c43.48,0,43.48,103,87,103s43.49-103,87-103,43.48,103,87,103,43.48-103,87-103,43.48,103,87,103,43.48-103,87-103,43.48,103,87,103,43.48-103,87-103,43.48,103,87,103,43.48-103,87-103,43.49,103,87,103,43.49-103,87-103,43.48,103,87,103,43.49-103,87-103"/><path class="cls-16" d="M-105.3,82.6c41.81,0,41.81,92.8,83.63,92.8S20.14,82.6,62,82.6s41.81,92.8,83.63,92.8,41.81-92.8,83.62-92.8,41.82,92.8,83.63,92.8,41.81-92.8,83.62-92.8,41.82,92.8,83.63,92.8,41.81-92.8,83.62-92.8,41.82,92.8,83.63,92.8S689.14,82.6,731,82.6s41.81,92.8,83.62,92.8,41.82-92.8,83.63-92.8,41.82,92.8,83.63,92.8,41.82-92.8,83.63-92.8"/><path class="cls-17" d="M-82.78,87.2c40.2,0,40.2,83.61,80.4,83.61S37.83,87.2,78,87.2s40.21,83.61,80.41,83.61S198.65,87.2,238.85,87.2s40.21,83.61,80.41,83.61S359.47,87.2,399.67,87.2s40.2,83.61,80.41,83.61,40.2-83.61,80.41-83.61,40.2,83.61,80.41,83.61S681.1,87.2,721.31,87.2s40.2,83.61,80.41,83.61,40.2-83.61,80.41-83.61,40.21,83.61,80.41,83.61S1002.75,87.2,1043,87.2"/><path class="cls-18" d="M-61.14,91.34c38.66,0,38.66,75.32,77.32,75.32S54.84,91.34,93.5,91.34s38.66,75.32,77.31,75.32,38.66-75.32,77.32-75.32,38.66,75.32,77.32,75.32,38.66-75.32,77.31-75.32,38.66,75.32,77.32,75.32,38.66-75.32,77.32-75.32,38.65,75.32,77.31,75.32S673.37,91.34,712,91.34s38.66,75.32,77.32,75.32S828,91.34,866.67,91.34s38.66,75.32,77.32,75.32,38.66-75.32,77.32-75.32"/><path class="cls-19" d="M-40.32,95.07c37.17,0,37.17,67.86,74.34,67.86s37.17-67.86,74.35-67.86,37.17,67.86,74.34,67.86,37.17-67.86,74.34-67.86,37.17,67.86,74.34,67.86,37.18-67.86,74.35-67.86,37.17,67.86,74.34,67.86,37.17-67.86,74.34-67.86,37.17,67.86,74.34,67.86,37.18-67.86,74.35-67.86,37.17,67.86,74.34,67.86,37.17-67.86,74.35-67.86,37.17,67.86,74.34,67.86,37.18-67.86,74.35-67.86"/><path class="cls-20" d="M-20.3,98.44c35.74,0,35.74,61.13,71.48,61.13s35.74-61.13,71.48-61.13,35.74,61.13,71.49,61.13,35.74-61.13,71.48-61.13,35.74,61.13,71.48,61.13,35.75-61.13,71.49-61.13,35.74,61.13,71.48,61.13,35.74-61.13,71.48-61.13,35.74,61.13,71.49,61.13,35.74-61.13,71.48-61.13,35.74,61.13,71.49,61.13,35.74-61.13,71.48-61.13,35.74,61.13,71.49,61.13,35.74-61.13,71.49-61.13"/><path class="cls-21" d="M-1.06,101.47c34.37,0,34.37,55.07,68.74,55.07s34.36-55.07,68.73-55.07,34.37,55.07,68.73,55.07,34.37-55.07,68.74-55.07,34.37,55.07,68.73,55.07,34.37-55.07,68.74-55.07,34.36,55.07,68.73,55.07,34.37-55.07,68.73-55.07,34.37,55.07,68.74,55.07,34.37-55.07,68.73-55.07,34.37,55.07,68.74,55.07,34.37-55.07,68.73-55.07,34.37,55.07,68.74,55.07,34.37-55.07,68.74-55.07"/><path class="cls-22" d="M17.45,104.2c33,0,33,49.61,66.09,49.61s33-49.61,66.09-49.61,33,49.61,66.09,49.61,33-49.61,66.09-49.61,33,49.61,66.09,49.61S381,104.2,414,104.2s33.05,49.61,66.09,49.61,33.05-49.61,66.09-49.61,33.05,49.61,66.09,49.61,33-49.61,66.09-49.61,33,49.61,66.09,49.61,33-49.61,66.1-49.61,33,49.61,66.09,49.61,33-49.61,66.09-49.61"/><path class="cls-23" d="M35.24,106.65c31.78,0,31.78,44.7,63.55,44.7s31.77-44.7,63.55-44.7,31.77,44.7,63.55,44.7,31.77-44.7,63.55-44.7,31.77,44.7,63.54,44.7,31.78-44.7,63.55-44.7,31.78,44.7,63.55,44.7,31.77-44.7,63.55-44.7,31.77,44.7,63.55,44.7,31.77-44.7,63.55-44.7,31.77,44.7,63.55,44.7,31.77-44.7,63.55-44.7,31.77,44.7,63.55,44.7,31.77-44.7,63.55-44.7"/><path class="cls-24" d="M52.35,108.87c30.55,0,30.55,40.27,61.1,40.27s30.56-40.27,61.11-40.27,30.55,40.27,61.1,40.27,30.56-40.27,61.11-40.27,30.55,40.27,61.1,40.27,30.56-40.27,61.11-40.27,30.55,40.27,61.1,40.27,30.55-40.27,61.1-40.27,30.56,40.27,61.11,40.27,30.55-40.27,61.1-40.27S694,149.14,724.5,149.14s30.55-40.27,61.11-40.27,30.55,40.27,61.1,40.27,30.56-40.27,61.11-40.27"/><path class="cls-25" d="M68.8,110.86c29.38,0,29.38,36.28,58.76,36.28s29.37-36.28,58.75-36.28,29.38,36.28,58.75,36.28,29.38-36.28,58.76-36.28,29.38,36.28,58.75,36.28,29.38-36.28,58.76-36.28,29.37,36.28,58.75,36.28,29.38-36.28,58.75-36.28,29.38,36.28,58.76,36.28,29.38-36.28,58.75-36.28,29.38,36.28,58.76,36.28,29.38-36.28,58.75-36.28,29.38,36.28,58.76,36.28,29.38-36.28,58.76-36.28"/><path class="cls-26" d="M84.62,112.66c28.25,0,28.25,32.69,56.49,32.69s28.25-32.69,56.5-32.69,28.25,32.69,56.49,32.69,28.25-32.69,56.5-32.69,28.25,32.69,56.49,32.69,28.25-32.69,56.5-32.69,28.24,32.69,56.49,32.69,28.25-32.69,56.5-32.69,28.24,32.69,56.49,32.69,28.25-32.69,56.49-32.69,28.25,32.69,56.5,32.69,28.25-32.69,56.5-32.69,28.24,32.69,56.49,32.69,28.25-32.69,56.5-32.69"/></g><rect class="cls-2" width="978" height="228.38"/></g></svg>