<svg xmlns="http://www.w3.org/2000/svg" viewBox="0 0 808.29 100"><defs><style>.cls-1{fill:#fff;}</style></defs><g id="Layer_14" data-name="Layer 14"><path class="cls-1" d="M699.33,60.07V32.92c0-3.46,1.22-4.68,4.67-4.68h8.85c4.57,0,7.9,2,9.68,6.25.58,1.38,1,.31,1.3-.08a24,24,0,0,1,25.69-6.18,18.2,18.2,0,0,1,9,7.15c.38.58.64,1.21,1.42.3,5.12-6,11.82-8.54,19.51-9,5.06-.31,10,.13,14.68,2.29,6.53,3,10.47,8.3,12.58,15a48.7,48.7,0,0,1,2.13,14.63q0,17.12,0,34.24c0,3-1.35,4.39-4.42,4.4-3.71,0-7.42,0-11.13,0-6.36,0-10.37-4.06-10.38-10.38q0-14.39-.06-28.76a12.49,12.49,0,0,0-.51-3.43c-.8-2.84-2.3-5.11-5.44-5.6a8.05,8.05,0,0,0-8,3.08,10.75,10.75,0,0,0-2.14,6.9q0,16.73,0,33.44c0,.44,0,.89,0,1.34a3.46,3.46,0,0,1-3.65,3.63,122.94,122.94,0,0,1-12.59-.12,9.7,9.7,0,0,1-9.11-9.91l-.06-29.82a15.49,15.49,0,0,0-.5-3.71c-1.13-4.41-4.61-6.36-9-5.06-3.65,1.08-6.17,4.43-6.62,8.88A31.36,31.36,0,0,0,725,61q0,16.11,0,32.23c0,3-1.22,4.31-4.29,4.34-3.66,0-7.33,0-11,0-6.42-.09-10.4-4.15-10.41-10.56Z"/><path class="cls-1" d="M217.26,66.21V94.69c0,2.6-.95,3.56-3.53,3.56q-6.3,0-12.6,0a8.64,8.64,0,0,1-8.65-6.09c-.29-.83-.45-1-1.17-.31-4.94,5-11.11,7.23-18,7.62-8.36.49-16.18-1.35-23-6.46S139.78,80.6,138.3,72.24c-1.71-9.71-.92-19.17,4-27.9,6.17-11,15.79-16.5,28.4-16.82a30.5,30.5,0,0,1,12.22,2,18.47,18.47,0,0,1,7.92,5.76c.18.23.32.64.66.58s.32-.58.39-.9c.23-1.09.39-2.19.62-3.28a2.86,2.86,0,0,1,3.06-2.59c4.38,0,8.76-.07,13.14,0a8.67,8.67,0,0,1,8.58,8.8Q217.28,52,217.26,66.21Zm-25.73-2.77c-.1-1.06-.16-2.13-.31-3.19-.92-6.18-4.85-10.47-10.52-11.52-6.66-1.23-12.32,1.1-15.31,6.43a17.78,17.78,0,0,0-1.82,11.53,13.65,13.65,0,0,0,17.33,11.6C187.3,76.62,191.56,70.64,191.53,63.44Z"/><path class="cls-1" d="M483.9,36.43c.34-1.81.58-3.2.86-4.58.38-1.92,1.26-2.65,3.24-2.65,4.33,0,8.67,0,13,0a8.71,8.71,0,0,1,8.54,7.72,16.89,16.89,0,0,1,.08,2V94.29c0,3.25-.88,4.13-4.13,4.13h-11.8a8.77,8.77,0,0,1-8.91-6.15c-.25-.67-.36-1.07-1.1-.35-5.94,5.85-13.31,8-21.43,7.74a33.23,33.23,0,0,1-19.63-6.57c-6.54-5-10.21-11.74-11.79-19.64-2.11-10.58-1.25-20.85,4.47-30.23C442,32.3,452,27.44,464.68,27.61A27.56,27.56,0,0,1,477,30.41,18.45,18.45,0,0,1,483.9,36.43Zm-28.24,27.2a16.82,16.82,0,0,0,.28,3.47c.93,5.15,3.56,9.06,8.61,10.86s9.87,1.17,14-2.35c5-4.26,6.07-9.91,4.84-16.06A13.92,13.92,0,0,0,461.48,51C457.18,54.11,455.79,58.6,455.66,63.63Z"/><path class="cls-1" d="M357.85,91.35a25.31,25.31,0,0,1-6.79,5.15c-18.67,9.4-41.41-1-46.38-21.18A44.56,44.56,0,0,1,305,51.81c4.69-16,18.49-25.35,35.33-24,5.48.45,10.54,2,14.63,5.86.8.76,1.5,1.62,2.44,2.64.25-1.38.47-2.57.68-3.76.47-2.61,1.31-3.33,3.95-3.34,3.93,0,7.87,0,11.8,0,5.47,0,9.2,3.73,9.2,9.16V94.85c0,2.72-1,3.67-3.74,3.67-3.75,0-7.5,0-11.26,0C362.4,98.52,359.86,96.78,357.85,91.35Zm-.61-27.51a21.08,21.08,0,0,0-.32-3.72A13,13,0,0,0,346.13,49c-6.67-1.1-12.27,1.38-15.14,6.78a17.55,17.55,0,0,0-1.83,9.72c.68,9.67,8.78,15.58,17.84,13C353.16,76.79,357.32,70.84,357.24,63.84Z"/><path class="cls-1" d="M39.5.13q17.91,0,35.8,0c5.62,0,9.36,3.69,9.39,9.27q0,5.07,0,10.16c0,2.43-1.1,3.52-3.53,3.52-7.91,0-15.82,0-23.73,0-1.29,0-1.53.41-1.53,1.59q0,34.83,0,69.68c0,3.08-.86,3.93-4,3.93q-7.38,0-14.75,0a8.68,8.68,0,0,1-9-9q0-20.2,0-40.39c0-8.12,0-16.23,0-24.34,0-1.14-.35-1.42-1.44-1.41-7.82,0-15.65,0-23.47,0-2.77,0-3.79-1-3.8-3.79q0-7.75,0-15.52C-.51,1.2.57.13,3.16.13Z"/><path class="cls-1" d="M653.41,26.71c7.8.05,15.3,1.44,22.19,5.25,11.25,6.22,16.55,16.07,17.24,28.63.39,7.32-.79,14.32-4.5,20.74-4.47,7.76-11.29,12.68-19.72,15.33-12.29,3.86-24.46,3.43-36.15-2.19C621.38,89.15,615.38,80.05,614,68c-.87-7.53-.09-14.88,3.25-21.79,4.63-9.59,12.63-15,22.64-17.75A49.42,49.42,0,0,1,653.41,26.71ZM639.07,63c0,9.35,6.69,15.63,15.75,14.88,7.24-.61,12.32-6.32,12.71-14.31.53-10.6-8.52-18-18.44-15.13C643,50.21,639,56,639.07,63Z"/><path class="cls-1" d="M263.91,70.21c1-3.25,2-6.29,2.9-9.36,2.84-10.1,6.72-19.82,10.49-29.59A2.93,2.93,0,0,1,280.56,29c4,0,8,0,11.93,0a8.71,8.71,0,0,1,8.16,12.09C293.11,59.59,285.49,78,277.92,96.43a3.05,3.05,0,0,1-3.16,2.14c-5.77,0-11.53,0-17.29.05a8.87,8.87,0,0,1-8.78-5.82q-11.74-27.35-23.46-54.7c-.68-1.6-1.41-3.18-2-4.79-1-2.41.32-4.36,2.92-4.38q10.18,0,20.38,0c1.89,0,2.58.6,3.4,2.62,4.94,12.09,9.18,24.44,13.18,36.87A3.91,3.91,0,0,0,263.91,70.21Z"/><path class="cls-1" d="M584.84,26.71a39.75,39.75,0,0,1,19,4.56c5.35,2.81,6.39,8.47,2.32,12.91-1.54,1.68-3.07,3.35-4.63,5-1.87,2-3.62,2.18-6,.69a16.36,16.36,0,0,0-14.15-1.78c-5.71,1.74-9.45,6.86-9.89,13.33-.37,5.48,1.16,10.25,6,13.33,5.28,3.36,10.92,3.36,16.5.69,4.28-2,7.19-1.69,10.52,1.66,2.11,2.12,4.22,4.23,6.32,6.36,2.26,2.29,2,4.76-.5,6.71-17.21,13.26-39.21,9.1-50.15,1.71a29.72,29.72,0,0,1-12.4-17.53c-2.37-8.94-2.2-17.87,1.37-26.5,4.3-10.37,12.44-16.36,23-19.42A45.92,45.92,0,0,1,584.84,26.71Z"/><path class="cls-1" d="M395.38,46.44V3.78c0-2.82.95-3.77,3.77-3.77,4.24,0,8.49,0,12.73,0A8.72,8.72,0,0,1,421,9.09V94.53c0,2.85-.89,3.72-3.77,3.72q-6.37,0-12.74,0c-5.49,0-9.12-3.64-9.12-9.16Z"/><path class="cls-1" d="M104.3,36.08c.78-1,1.45-1.92,2.21-2.76a16.76,16.76,0,0,1,8.74-5.2A25,25,0,0,1,137,32.74c1.76,1.35,2,2.59.92,4.54q-3.59,6.51-7.19,13c-1.1,2-2.62,2.38-4.59,1.21A16.44,16.44,0,0,0,114.5,49.6c-4.93.92-8.14,4.62-8.85,10a24.1,24.1,0,0,0-.19,3.07q0,16,0,32c0,2.75-.93,3.66-3.7,3.66q-6.57,0-13.14,0c-5.47,0-9.19-3.67-9.19-9.13q0-28.28,0-56.54v-.27c0-2.25,1.14-3.37,3.39-3.38q6,0,12.06,0,6.88,0,9.14,6.61A4.43,4.43,0,0,0,104.3,36.08Z"/><path class="cls-1" d="M530.14,73.22c5.47.08,9.94,1.71,12.65,6.47,4.52,8-.46,17.51-9.69,18.75a17.7,17.7,0,0,1-7.17-.39,12.45,12.45,0,0,1-9.42-13.21c.42-6.06,4.83-10.57,11.19-11.43C528.58,73.29,529.47,73.27,530.14,73.22Z"/></g></svg>