<svg id="Layer_1" data-name="Layer 1" xmlns="http://www.w3.org/2000/svg" viewBox="0 0 651 238"><defs><style>.cls-1{fill:#fff;}</style></defs><path class="cls-1" d="M82.5,29.33,29.29,121.5,82.5,213.67H188.94l1.76-3,51.46-89.13L188.94,29.33ZM92.65,41.54h78.83L119.65,57.93a15.85,15.85,0,0,1,2,5l59.66-18.81L193.22,102a20.12,20.12,0,0,1,5.36-.78l-10-47.91,37.87,65.53h-7.62a24.21,24.21,0,0,1,.15,2.68,23.29,23.29,0,0,1-.15,2.68h7.62l-39.1,67.75,10.92-50.13A20.57,20.57,0,0,1,193,141l-12.88,59-58.37-19.53a17.61,17.61,0,0,1-1.7,5l47.5,15.92H92.65l4-6.85A20.17,20.17,0,0,1,91.93,192L88,198.78,50.67,134.13l37,32.66a20.52,20.52,0,0,1,3.6-4L44.69,121.66,93,78.79a17.45,17.45,0,0,1-3.19-4.32l-39.46,35L88,44.22l5.56,9.69A17.51,17.51,0,0,1,98.12,51Zm28.24,31.17a16.15,16.15,0,0,1-2.68,4.64l62,35.81a19.74,19.74,0,0,1,2.83-4.54Zm-20,10.51v75.33a18,18,0,0,1,2.47-.16,17.18,17.18,0,0,1,2.89.21v-75a11.21,11.21,0,0,1-1.29,0,17.57,17.57,0,0,1-4.07-.47Zm79.34,46.63-62.08,35.81a18.45,18.45,0,0,1,2.68,4.68l62.23-36a19.68,19.68,0,0,1-2.83-4.53Z"/><path class="cls-1" d="M105,49.58a17.06,17.06,0,1,0,17,17,17.08,17.08,0,0,0-17-17Zm0,5.36a11.7,11.7,0,1,1-11.7,11.69A11.65,11.65,0,0,1,105,54.94Z"/><path class="cls-1" d="M103.37,158.39a18.73,18.73,0,1,0,18.7,18.7,18.74,18.74,0,0,0-18.7-18.7Zm0,5.31A13.4,13.4,0,1,1,90,177.09a13.37,13.37,0,0,1,13.4-13.39Z"/><path class="cls-1" d="M198.73,101.2A20.3,20.3,0,1,0,219,121.5a20.34,20.34,0,0,0-20.3-20.3Zm0,5.36a14.94,14.94,0,1,1-14.94,14.94,14.88,14.88,0,0,1,14.94-14.94Z"/><path class="cls-1" d="M570,60.35a61.13,61.13,0,1,0,61.11,61.1A61.21,61.21,0,0,0,570,60.35Zm-266.4.1-8.2,8.14,53,52.91-53,52.91,8.2,8.2,52.91-53,44.77,44.77,8.14,8.2,114-114-8.14-8.14-52.91,52.91-53-52.91-8.14,8.14-44.77,44.77ZM570,71.84a49.61,49.61,0,1,1-49.61,49.61A49.54,49.54,0,0,1,570,71.84ZM409.45,76.73l44.77,44.77-44.77,44.77L364.68,121.5Z"/></svg>